<svg width="18" height="17" fill="none" xmlns="http://www.w3.org/2000/svg"><path fill-rule="evenodd" clip-rule="evenodd" d="M2.044 1.023h1.59V3.01h1.647V1.023h2.157V3.01h1.647V1.023H11.3V3.01h1.646V1.023h1.59c1.136 0 2.044.909 2.044 2.044v6.53A4.158 4.158 0 0118 12.72c0 2.215-1.817 4.032-4.088 4.032a4.085 4.085 0 01-3.578-2.101h-8.29A2.036 2.036 0 010 12.607v-9.54c0-1.135.909-2.044 2.044-2.044zm11.584 5.451a.69.69 0 01.681.682.69.69 0 01-.681.68.656.656 0 01-.682-.68c0-.398.284-.682.682-.682zm-2.158 0c.397 0 .681.284.681.682a.656.656 0 01-.681.68.69.69 0 01-.681-.68.69.69 0 01.681-.682zm-2.1 0a.69.69 0 01.68.682.69.69 0 01-.68.68.656.656 0 01-.682-.68c0-.398.284-.682.681-.682zm-2.159 0c.398 0 .682.284.682.682a.656.656 0 01-.682.68.69.69 0 01-.681-.68.69.69 0 01.681-.682zM2.953 8.802c.397 0 .681.284.681.682a.69.69 0 01-.681.681c-.341 0-.682-.34-.682-.681a.69.69 0 01.682-.682zm6.416 0a.69.69 0 01.681.682c0 .34-.34.681-.68.681a.69.69 0 01-.682-.681c0-.398.284-.682.681-.682zm-2.158 0c.398 0 .682.284.682.682a.69.69 0 01-.682.681c-.34 0-.681-.34-.681-.681a.69.69 0 01.681-.682zm-2.1 0a.69.69 0 01.68.682c0 .34-.34.681-.68.681a.69.69 0 01-.682-.681c0-.398.284-.682.681-.682zM2.952 11.13c.397 0 .681.284.681.682a.69.69 0 01-.681.681c-.341 0-.682-.34-.682-.681a.69.69 0 01.682-.682zm4.258 0c.398 0 .682.284.682.682a.69.69 0 01-.682.681c-.34 0-.681-.34-.681-.681a.69.69 0 01.681-.682zm-2.1 0a.69.69 0 01.68.682c0 .34-.34.681-.68.681a.69.69 0 01-.682-.681c0-.398.284-.682.681-.682zM3.974.001h.908v2.612h-.908V.001zm7.722 0h.909v2.612h-.909V.001zm-3.861 0h.908v2.612h-.908V.001zm2.726 12.72c0-1.08.51-1.988 1.249-2.613l2.328 3.066 2.725-2.1c1.25 2.214-.34 4.996-2.952 4.996-1.817 0-3.35-1.533-3.35-3.35zm3.35-4.09c.624 0 1.192.171 1.76.398V4.771H.909v7.836c0 .624.51 1.135 1.135 1.135h7.95c-.625-2.555 1.249-5.11 3.918-5.11z" fill="#757575"/></svg>