<svg width="20" height="15" fill="none" xmlns="http://www.w3.org/2000/svg"><path d="M3.037 2.331l.49-2.33 11.085 2.33h2.223V2.8L20 3.464l-2.226 10.589-4.275-.899H0V2.331h3.037zM13.12 6.265l.266.825.868-.002c.345 0 .484.443.209.643l-.702.509.269.824c.111.342-.298.61-.57.381l-.679-.495-.7.511c-.28.203-.652-.073-.547-.396l.268-.825-.702-.509c-.29-.21-.119-.668.235-.643l.842.002.266-.825c.106-.33.572-.325.677 0zM4.03 2.33H9.89l-5.612-1.18-.248 1.18zm12.805 1.46v9.072l.188.04 1.827-8.688-2.015-.424zm-7.088-.486v8.875h6.114V3.305H9.747z" fill="#648CFF"/></svg>