<svg width="154" height="32" fill="none" xmlns="http://www.w3.org/2000/svg"><path fill-rule="evenodd" clip-rule="evenodd" d="M86.588 10.942H81.06v2.824h5.53c.47 0 .705 0 .94-.236a.9.9 0 00.236-.588v-1.176a.9.9 0 00-.235-.589c-.236-.117-.47-.235-.942-.235zm-8 8.824V9.06h9.177c.823 0 1.412.117 1.882.47.353.236.588.824.588 1.53v2.353c0 .705-.235 1.294-.588 1.529-.353.353-1.059.47-1.882.47h-6.706v4.118h-2.47v.236zM101.765 10.942h-5.53v3.059h5.53c.47 0 .706 0 .941-.118.118-.117.235-.353.235-.706v-1.294a.896.896 0 00-.235-.588c-.235-.235-.471-.353-.941-.353zm-8 8.824V9.06h9.059c.823 0 1.529.117 1.882.47.353.236.588.824.588 1.53v2.47c0 .706-.235 1.294-.588 1.53-.353.353-1.059.47-1.882.47h-1.412l4.941 4h-3.529l-4.353-4h-2.353v4h-2.353v.236zM110.118 19.766V9.178h10.941v1.765h-8.353v2.353h4.942v1.882h-4.942v2.588h8.471v2h-11.059zM135.059 11.06h-6.941v2.235h6.588c1.059 0 1.765.118 2.118.47.353.353.588 1.06.588 2v1.412c0 .942-.117 1.647-.588 2-.353.353-1.059.47-2.118.47h-6.588c-1.059 0-1.765-.117-2.118-.47-.352-.353-.47-1.058-.47-2v-.235l2.235-.47v1.294h7.53v-2.353h-6.706c-1.059 0-1.765-.118-2.118-.589-.353-.352-.588-.94-.588-2v-1.176c0-.941.117-1.647.588-2 .353-.353 1.059-.588 2.118-.588h6.117c1.059 0 1.765.117 2.118.47s.588.942.588 1.883v.235l-2.117.47V11.06h-.236zM150.706 11.06h-6.941v2.235h6.588c1.059 0 1.765.118 2.118.47.353.353.471 1.06.471 2v1.412c0 .942-.118 1.647-.471 2s-1.059.47-2.118.47h-6.588c-1.059 0-1.764-.117-2.117-.47s-.589-1.058-.589-2v-.235l2.236-.47v1.294h7.529v-2.353h-6.588c-1.059 0-1.765-.118-2.118-.589-.353-.352-.47-.94-.47-2v-1.176c0-.941.117-1.647.47-2s1.059-.588 2.118-.588h6.117c.942 0 1.648.117 2.118.47.353.353.588.942.588 1.883v.235l-2.235.47V11.06h-.118zM61.883 19.766l4.941-5.412-5.059-5.176h3.294l3.412 3.53 3.176-3.53h2.824l-4.588 4.941 5.764 5.647h-3.411l-3.883-4.117-3.647 4.117h-2.823zM6.235 19.765L0 9.177h2.824l4.352 7.647 4.118-7.647h2.47L7.883 19.765H6.235zM15.53 19.766V9.06h1.647l7.529 6.353c.235.235.47.353.706.588.235.117.353.353.588.588 0-.588-.118-1.059-.118-1.294V9.06h2.236v10.706h-1.765l-7.882-6.589c-.118-.117-.353-.235-.471-.47l-.353-.353V19.766H15.53z" fill="#fff"/><path d="M57.53.001H32.705c-.941 0-1.765.824-1.765 1.765v28.47c0 .941.824 1.765 1.765 1.765h24.823c.942 0 1.765-.824 1.765-1.765V1.766C59.294.825 58.471 0 57.53 0zm-.824 27.647c0 .941-.824 1.765-1.765 1.765H35.176c-.94 0-1.764-.824-1.764-1.765V4.354c0-.941.823-1.765 1.764-1.765h19.53c.941 0 1.765.824 1.765 1.765v4c0 .941-.824 1.765-1.765 1.765H42.47v1.294h5.411c.942 0 1.765.823 1.765 1.764v4.824c0 .47-.235.941-.47 1.294-.353.353-.824.47-1.295.47h-5.411v1.648h12.47c.941 0 1.765.823 1.765 1.764v4.471z" fill="#fff"/><path d="M40.706 18.002l7.176.117v-4.94h-7.176V8.354h14v-4h-19.53v23.294h19.765v-4.353H40.706v-5.294z" fill="#fff"/></svg>