<svg width="110" height="32" fill="none" xmlns="http://www.w3.org/2000/svg"><g clip-path="url(#clip0)" fill="#fff"><path d="M6.37 25.07L2.05 31.9H.66L0 25.07h1.74l.21 4.53 2.72-4.53h1.7zM8.81 25.07h1.6L8.57 31.9h-1.6l1.84-6.83zM15.04 31.9l-.8-2.2h-.56l-.59 2.2h-1.56l1.84-6.83h2.65c1.67 0 2.16 1.01 1.77 2.37a2.93 2.93 0 01-1.8 2.05v.04l.93 2.4h-1.88v-.03zm-.97-3.62h.73c.7 0 1.18-.35 1.36-.91.14-.52-.14-.9-.84-.9h-.77l-.48 1.8zM22.04 26.5h-1.77l.38-1.43h5.15l-.38 1.43h-1.78l-1.46 5.4h-1.6l1.46-5.4zM27.2 29.04l1.07-3.97h1.6l-1.04 3.87c-.2.83 0 1.53.77 1.53.7 0 1.36-.56 1.63-1.53l1.05-3.87h1.6l-1.08 3.97C32.31 30.82 31 32 29.21 32c-1.67 0-2.54-1.04-2.02-2.96zM38.79 30.68h-2.37l-.73 1.22h-1.67l4.32-6.83h1.53l.66 6.83h-1.67l-.07-1.22zm-.07-1.36l-.14-2.3h-.03l-1.36 2.3h1.53zM44.74 25.07h1.6l-1.46 5.4h2.82l-.38 1.43H42.9l1.84-6.83zM61.5 31.9l-.8-2.2h-.57l-.59 2.2h-1.56l1.84-6.83h2.65c1.67 0 2.16 1.01 1.77 2.37a2.93 2.93 0 01-1.8 2.05v.04l.93 2.4H61.5v-.03zm-.98-3.62h.73c.7 0 1.18-.35 1.36-.91.14-.52-.14-.9-.84-.9h-.76l-.5 1.8zM70.1 30.68h-2.37l-.74 1.22h-1.67l4.32-6.83h1.53l.66 6.83h-1.67l-.07-1.22zm-.08-1.36l-.14-2.3h-.03l-1.36 2.3h1.53zM77.02 31.97c-1.88 0-3.17-1.22-2.54-3.49a4.6 4.6 0 014.42-3.51c.94 0 1.88.38 2.37 1.32l-1.43 1.01c-.2-.38-.7-.8-1.35-.8-.98 0-2.02.73-2.34 1.98-.28 1.08.21 1.95 1.3 1.95.58 0 1.28-.3 1.77-.76l.9 1a4.65 4.65 0 01-3.1 1.3zM84.16 25.07h1.6l-1.84 6.83h-1.6l1.84-6.83zM94.57 25.07l-1.84 6.83h-1.64l-1.46-4.11h-.04l-1.11 4.1h-1.6l1.84-6.82h1.6l1.5 4.22h.04l1.11-4.22h1.6zM96.31 28.48a4.54 4.54 0 014.36-3.51c.97 0 1.95.42 2.4 1.22l-1.4.97a1.7 1.7 0 00-1.42-.66c-.94 0-1.95.73-2.3 2.02-.28 1.11.14 2.02 1.29 2.02.38 0 .8-.1 1.25-.31l.21-.77h-1.29l.35-1.36h2.82l-.83 3.07c-.74.48-1.89.83-2.93.83-1.91-.03-3.1-1.29-2.5-3.52zM8.95 21.1a4.12 4.12 0 01-3-1.18 4.56 4.56 0 01-1.39-3L3.56 0h5.32l.52 14.87L16.16 0h5.88l-10.1 21.1h-3zM34.23 14.28h-3.2l-.21.87-.53 2.23-.55 2.36-.32 1.33h-5.15l4.21-17.59c.8-2.33 2.3-3.48 4.43-3.48h10.13a4.3 4.3 0 013.48 1.64 4.16 4.16 0 01.87 3.76 70.35 70.35 0 00-.73 3.1l-.56 2.3a4.61 4.61 0 01-1.6 2.5c-.8.66-1.78.98-2.82.98H39.8l4.04 6.82H38.3l-4.07-6.82zm8.32-8.7a.52.52 0 00-.14-.5c-.14-.17-.28-.24-.45-.24h-8.01a.5.5 0 00-.35.14c-.14.1-.2.24-.24.38l-.9 4.04h8.6c.3 0 .52-.14.62-.45l.87-3.38zM49.83 3.48C50.63 1.15 52.09 0 54.15 0h15.21l-5.08 21.1h-4.95l1.4-5.81 2.5-10.45h-8.39a.5.5 0 00-.35.14c-.14.1-.2.2-.24.38l-1.18 5.09h7.41l-1.18 4.87h-7.42l-1.39 5.82h-4.91l4.25-17.66zM70.76 3.48C71.59 1.15 73.06 0 75.2 0H89.6l-1.15 4.84h-12.4a.5.5 0 00-.34.14c-.1.1-.2.2-.28.38l-2.4 10.2c-.04.21 0 .39.14.53s.28.2.49.2h12.11l-1.15 4.81H72.32a4.37 4.37 0 01-3.58-1.77 4.55 4.55 0 01-.84-3.62l2.86-12.23zM90.5 3.48C91.33 1.15 92.83 0 94.99 0h14.35l-1.15 4.84H95.79a.5.5 0 00-.35.14c-.14.1-.24.2-.28.38l-.66 2.79h8.46l-1.11 4.84h-8.5l-.62 2.58c-.04.2 0 .38.14.52.1.14.27.2.45.2h12.08l-1.15 4.81H91.96a4.31 4.31 0 01-3.52-1.63 4.16 4.16 0 01-.87-3.76L90.5 3.47zM23.5 14.38l1.12-4.9h-4.88l-1.11 4.9h4.87z"/></g><defs><clipPath id="clip0"><path fill="#fff" d="M0 0h109.34v32H0z"/></clipPath></defs></svg>